{
	"asset":{
		"generator":"Khronos glTF Blender I/O v3.5.30",
		"version":"2.0"
	},
	"scene":0,
	"scenes":[
		{
			"name":"Scene",
			"nodes":[
				0
			]
		}
	],
	"nodes":[
		{
			"mesh":0,
			"name":"Cylinder"
		}
	],
	"meshes":[
		{
			"name":"Cylinder.001",
			"primitives":[
				{
					"attributes":{
						"POSITION":0,
						"TEXCOORD_0":1,
						"NORMAL":2
					},
					"indices":3
				}
			]
		}
	],
	"accessors":[
		{
			"bufferView":0,
			"componentType":5126,
			"count":1605,
			"max":[
				0.9900220632553101,
				0.4386582374572754,
				0.9900220632553101
			],
			"min":[
				-0.9900220632553101,
				-0.22833362221717834,
				-0.9900220632553101
			],
			"type":"VEC3"
		},
		{
			"bufferView":1,
			"componentType":5126,
			"count":1605,
			"type":"VEC2"
		},
		{
			"bufferView":2,
			"componentType":5126,
			"count":1605,
			"type":"VEC3"
		},
		{
			"bufferView":3,
			"componentType":5123,
			"count":8064,
			"type":"SCALAR"
		}
	],
	"bufferViews":[
		{
			"buffer":0,
			"byteLength":19260,
			"byteOffset":0,
			"target":34962
		},
		{
			"buffer":0,
			"byteLength":12840,
			"byteOffset":19260,
			"target":34962
		},
		{
			"buffer":0,
			"byteLength":19260,
			"byteOffset":32100,
			"target":34962
		},
		{
			"buffer":0,
			"byteLength":16128,
			"byteOffset":51360,
			"target":34963
		}
	],
	"buffers":[
		{
			"byteLength":67488,
			"uri":"data:application/octet-stream;base64,"
		}
	]
}
