{
	"asset":{
		"generator":"Khronos glTF Blender I/O v3.5.30",
		"version":"2.0"
	},
	"extensionsUsed":[
		"KHR_materials_specular",
		"KHR_materials_ior"
	],
	"scene":0,
	"scenes":[
		{
			"name":"Scene",
			"nodes":[
				0,
				1,
				2,
				3,
				4,
				5
			]
		}
	],
	"nodes":[
		{
			"mesh":0,
			"name":"Door Frame"
		},
		{
			"mesh":1,
			"name":"Right Door",
			"translation":[
				-0.2500000298023224,
				0,
				0
			]
		},
		{
			"mesh":2,
			"name":"Door Left",
			"translation":[
				-0.2500000298023224,
				-3.3274292945861816e-05,
				0.01570981740951538
			]
		},
		{
			"mesh":3,
			"name":"Plane",
			"translation":[
				3.1049821376800537,
				-0.0048024291172623634,
				0
			]
		},
		{
			"mesh":4,
			"name":"Keypad",
			"translation":[
				0.19236595928668976,
				3.3721415996551514,
				-2.6762142181396484
			]
		},
		{
			"mesh":5,
			"name":"Keypad.001",
			"translation":[
				0.19236595928668976,
				3.3721399307250977,
				-2.6762099266052246
			]
		}
	],
	"animations":[
		{
			"channels":[
				{
					"sampler":0,
					"target":{
						"node":1,
						"path":"translation"
					}
				}
			],
			"name":"Right DoorAction",
			"samplers":[
				{
					"input":30,
					"interpolation":"LINEAR",
					"output":31
				}
			]
		},
		{
			"channels":[
				{
					"sampler":0,
					"target":{
						"node":2,
						"path":"translation"
					}
				}
			],
			"name":"Door LeftAction",
			"samplers":[
				{
					"input":30,
					"interpolation":"LINEAR",
					"output":32
				}
			]
		}
	],
	"materials":[
		{
			"doubleSided":true,
			"name":"Material.001",
			"pbrMetallicRoughness":{
				"baseColorFactor":[
					0.2608664631843567,
					0.37478601932525635,
					0.8000000715255737,
					1
				],
				"metallicFactor":0,
				"roughnessFactor":0.5
			}
		},
		{
			"doubleSided":true,
			"name":"Material.002",
			"pbrMetallicRoughness":{
				"baseColorFactor":[
					0.32969990372657776,
					0.6499072909355164,
					0.8000000715255737,
					1
				],
				"roughnessFactor":0.331818163394928
			}
		},
		{
			"doubleSided":true,
			"name":"Metal Backplate",
			"pbrMetallicRoughness":{
				"baseColorFactor":[
					0.800000011920929,
					0.800000011920929,
					0.800000011920929,
					1
				],
				"roughnessFactor":0
			}
		},
		{
			"doubleSided":true,
			"name":"Button.001",
			"pbrMetallicRoughness":{
				"baseColorFactor":[
					0.8000000715255737,
					0.030618522316217422,
					0.016820451244711876,
					1
				],
				"metallicFactor":0,
				"roughnessFactor":0.5
			}
		},
		{
			"doubleSided":true,
			"extensions":{
				"KHR_materials_specular":{
					"specularColorFactor":[
						0.8191962629521939,
						0.8191962629521939,
						0.8191962629521939
					]
				},
				"KHR_materials_ior":{
					"ior":1.4500000476837158
				}
			},
			"name":"Label Backplate.001",
			"pbrMetallicRoughness":{
				"baseColorFactor":[
					0.9749178886413574,
					0.9207927584648132,
					1,
					1
				],
				"metallicFactor":0.9227272868156433,
				"roughnessFactor":0
			}
		},
		{
			"doubleSided":true,
			"name":"Metal Backplate.001",
			"pbrMetallicRoughness":{
				"baseColorFactor":[
					0.800000011920929,
					0.800000011920929,
					0.800000011920929,
					1
				],
				"roughnessFactor":0
			}
		}
	],
	"meshes":[
		{
			"name":"Cube.001",
			"primitives":[
				{
					"attributes":{
						"POSITION":0,
						"TEXCOORD_0":1,
						"NORMAL":2
					},
					"indices":3,
					"material":0
				}
			]
		},
		{
			"name":"Cube.003",
			"primitives":[
				{
					"attributes":{
						"POSITION":4,
						"TEXCOORD_0":5,
						"NORMAL":6
					},
					"indices":7,
					"material":1
				}
			]
		},
		{
			"name":"Cube.004",
			"primitives":[
				{
					"attributes":{
						"POSITION":8,
						"TEXCOORD_0":9,
						"NORMAL":10
					},
					"indices":7,
					"material":1
				}
			]
		},
		{
			"name":"Plane",
			"primitives":[
				{
					"attributes":{
						"POSITION":11,
						"TEXCOORD_0":12,
						"NORMAL":13
					},
					"indices":14
				}
			]
		},
		{
			"name":"Cube.005",
			"primitives":[
				{
					"attributes":{
						"POSITION":15,
						"TEXCOORD_0":16,
						"NORMAL":17
					},
					"indices":7,
					"material":2
				}
			]
		},
		{
			"name":"Cube.002",
			"primitives":[
				{
					"attributes":{
						"POSITION":18,
						"TEXCOORD_0":19,
						"NORMAL":20
					},
					"indices":21,
					"material":3
				},
				{
					"attributes":{
						"POSITION":22,
						"TEXCOORD_0":23,
						"NORMAL":24
					},
					"indices":25,
					"material":4
				},
				{
					"attributes":{
						"POSITION":26,
						"TEXCOORD_0":27,
						"NORMAL":28
					},
					"indices":29,
					"material":5
				}
			]
		}
	],
	"accessors":[
		{
			"bufferView":0,
			"componentType":5126,
			"count":64,
			"max":[
				0.1671367585659027,
				6.330023765563965,
				3.4996514320373535
			],
			"min":[
				-0.6671367883682251,
				0,
				-3.4996514320373535
			],
			"type":"VEC3"
		},
		{
			"bufferView":1,
			"componentType":5126,
			"count":64,
			"type":"VEC2"
		},
		{
			"bufferView":2,
			"componentType":5126,
			"count":64,
			"type":"VEC3"
		},
		{
			"bufferView":3,
			"componentType":5123,
			"count":132,
			"type":"SCALAR"
		},
		{
			"bufferView":4,
			"componentType":5126,
			"count":24,
			"max":[
				0.22353507578372955,
				5.269942760467529,
				0
			],
			"min":[
				-0.22353509068489075,
				0,
				-1.939605712890625
			],
			"type":"VEC3"
		},
		{
			"bufferView":5,
			"componentType":5126,
			"count":24,
			"type":"VEC2"
		},
		{
			"bufferView":6,
			"componentType":5126,
			"count":24,
			"type":"VEC3"
		},
		{
			"bufferView":7,
			"componentType":5123,
			"count":36,
			"type":"SCALAR"
		},
		{
			"bufferView":8,
			"componentType":5126,
			"count":24,
			"max":[
				0.22353507578372955,
				5.270412921905518,
				1.939605712890625
			],
			"min":[
				-0.22353509068489075,
				0,
				0
			],
			"type":"VEC3"
		},
		{
			"bufferView":9,
			"componentType":5126,
			"count":24,
			"type":"VEC2"
		},
		{
			"bufferView":10,
			"componentType":5126,
			"count":24,
			"type":"VEC3"
		},
		{
			"bufferView":11,
			"componentType":5126,
			"count":4,
			"max":[
				3.5037600994110107,
				0,
				3.5037600994110107
			],
			"min":[
				-3.5037600994110107,
				0,
				-3.5037600994110107
			],
			"type":"VEC3"
		},
		{
			"bufferView":12,
			"componentType":5126,
			"count":4,
			"type":"VEC2"
		},
		{
			"bufferView":13,
			"componentType":5126,
			"count":4,
			"type":"VEC3"
		},
		{
			"bufferView":14,
			"componentType":5123,
			"count":6,
			"type":"SCALAR"
		},
		{
			"bufferView":15,
			"componentType":5126,
			"count":24,
			"max":[
				1.862645149230957e-09,
				0.5761570334434509,
				0.3711966872215271
			],
			"min":[
				-0.02005258947610855,
				-0.5761567950248718,
				-0.3711966872215271
			],
			"type":"VEC3"
		},
		{
			"bufferView":16,
			"componentType":5126,
			"count":24,
			"type":"VEC2"
		},
		{
			"bufferView":17,
			"componentType":5126,
			"count":24,
			"type":"VEC3"
		},
		{
			"bufferView":18,
			"componentType":5126,
			"count":640,
			"max":[
				0.025000005960464478,
				0.30000001192092896,
				0.10000000149011612
			],
			"min":[
				-0.025000005960464478,
				-0.4000000059604645,
				-0.10000000149011612
			],
			"type":"VEC3"
		},
		{
			"bufferView":19,
			"componentType":5126,
			"count":640,
			"type":"VEC2"
		},
		{
			"bufferView":20,
			"componentType":5126,
			"count":640,
			"type":"VEC3"
		},
		{
			"bufferView":21,
			"componentType":5123,
			"count":1512,
			"type":"SCALAR"
		},
		{
			"bufferView":22,
			"componentType":5126,
			"count":88,
			"max":[
				0.0050000157207250595,
				0.5062500238418579,
				0.30000001192092896
			],
			"min":[
				-0.0050000157207250595,
				-0.11875000596046448,
				-0.30000001192092896
			],
			"type":"VEC3"
		},
		{
			"bufferView":23,
			"componentType":5126,
			"count":88,
			"type":"VEC2"
		},
		{
			"bufferView":24,
			"componentType":5126,
			"count":88,
			"type":"VEC3"
		},
		{
			"bufferView":25,
			"componentType":5123,
			"count":264,
			"type":"SCALAR"
		},
		{
			"bufferView":26,
			"componentType":5126,
			"count":69,
			"max":[
				1.862645149230957e-09,
				0.5761570334434509,
				0.3711966872215271
			],
			"min":[
				-0.02005258947610855,
				-0.5761567950248718,
				-0.3711966872215271
			],
			"type":"VEC3"
		},
		{
			"bufferView":27,
			"componentType":5126,
			"count":69,
			"type":"VEC2"
		},
		{
			"bufferView":28,
			"componentType":5126,
			"count":69,
			"type":"VEC3"
		},
		{
			"bufferView":29,
			"componentType":5123,
			"count":228,
			"type":"SCALAR"
		},
		{
			"bufferView":30,
			"componentType":5126,
			"count":11,
			"max":[
				1.6666666666666667
			],
			"min":[
				1.25
			],
			"type":"SCALAR"
		},
		{
			"bufferView":31,
			"componentType":5126,
			"count":11,
			"type":"VEC3"
		},
		{
			"bufferView":32,
			"componentType":5126,
			"count":11,
			"type":"VEC3"
		}
	],
	"bufferViews":[
		{
			"buffer":0,
			"byteLength":768,
			"byteOffset":0,
			"target":34962
		},
		{
			"buffer":0,
			"byteLength":512,
			"byteOffset":768,
			"target":34962
		},
		{
			"buffer":0,
			"byteLength":768,
			"byteOffset":1280,
			"target":34962
		},
		{
			"buffer":0,
			"byteLength":264,
			"byteOffset":2048,
			"target":34963
		},
		{
			"buffer":0,
			"byteLength":288,
			"byteOffset":2312,
			"target":34962
		},
		{
			"buffer":0,
			"byteLength":192,
			"byteOffset":2600,
			"target":34962
		},
		{
			"buffer":0,
			"byteLength":288,
			"byteOffset":2792,
			"target":34962
		},
		{
			"buffer":0,
			"byteLength":72,
			"byteOffset":3080,
			"target":34963
		},
		{
			"buffer":0,
			"byteLength":288,
			"byteOffset":3152,
			"target":34962
		},
		{
			"buffer":0,
			"byteLength":192,
			"byteOffset":3440,
			"target":34962
		},
		{
			"buffer":0,
			"byteLength":288,
			"byteOffset":3632,
			"target":34962
		},
		{
			"buffer":0,
			"byteLength":48,
			"byteOffset":3920,
			"target":34962
		},
		{
			"buffer":0,
			"byteLength":32,
			"byteOffset":3968,
			"target":34962
		},
		{
			"buffer":0,
			"byteLength":48,
			"byteOffset":4000,
			"target":34962
		},
		{
			"buffer":0,
			"byteLength":12,
			"byteOffset":4048,
			"target":34963
		},
		{
			"buffer":0,
			"byteLength":288,
			"byteOffset":4060,
			"target":34962
		},
		{
			"buffer":0,
			"byteLength":192,
			"byteOffset":4348,
			"target":34962
		},
		{
			"buffer":0,
			"byteLength":288,
			"byteOffset":4540,
			"target":34962
		},
		{
			"buffer":0,
			"byteLength":7680,
			"byteOffset":4828,
			"target":34962
		},
		{
			"buffer":0,
			"byteLength":5120,
			"byteOffset":12508,
			"target":34962
		},
		{
			"buffer":0,
			"byteLength":7680,
			"byteOffset":17628,
			"target":34962
		},
		{
			"buffer":0,
			"byteLength":3024,
			"byteOffset":25308,
			"target":34963
		},
		{
			"buffer":0,
			"byteLength":1056,
			"byteOffset":28332,
			"target":34962
		},
		{
			"buffer":0,
			"byteLength":704,
			"byteOffset":29388,
			"target":34962
		},
		{
			"buffer":0,
			"byteLength":1056,
			"byteOffset":30092,
			"target":34962
		},
		{
			"buffer":0,
			"byteLength":528,
			"byteOffset":31148,
			"target":34963
		},
		{
			"buffer":0,
			"byteLength":828,
			"byteOffset":31676,
			"target":34962
		},
		{
			"buffer":0,
			"byteLength":552,
			"byteOffset":32504,
			"target":34962
		},
		{
			"buffer":0,
			"byteLength":828,
			"byteOffset":33056,
			"target":34962
		},
		{
			"buffer":0,
			"byteLength":456,
			"byteOffset":33884,
			"target":34963
		},
		{
			"buffer":0,
			"byteLength":44,
			"byteOffset":34340
		},
		{
			"buffer":0,
			"byteLength":132,
			"byteOffset":34384
		},
		{
			"buffer":0,
			"byteLength":132,
			"byteOffset":34516
		}
	],
	"buffers":[
		{
			"byteLength":34648,
			"uri":"data:application/octet-stream;base64,"
		}
	]
}
